<mxfile host="65bd71144e">
    <diagram id="aGQo7Fn-6WEPqm-TmLkM" name="ページ1">
        <mxGraphModel dx="2443" dy="2021" grid="1" gridSize="10" guides="1" tooltips="1" connect="1" arrows="1" fold="1" page="1" pageScale="1" pageWidth="827" pageHeight="1169" math="0" shadow="0">
            <root>
                <mxCell id="0"/>
                <mxCell id="1" parent="0"/>
                <mxCell id="13" value="" style="outlineConnect=0;dashed=0;verticalLabelPosition=bottom;verticalAlign=top;align=center;html=1;shape=mxgraph.aws3.ecs;fillColor=#F58534;gradientColor=none;" parent="1" vertex="1">
                    <mxGeometry x="-520" y="210" width="72" height="67.5" as="geometry"/>
                </mxCell>
                <mxCell id="14" value="" style="outlineConnect=0;dashed=0;verticalLabelPosition=bottom;verticalAlign=top;align=center;html=1;shape=mxgraph.aws3.internet_gateway;fillColor=#F58534;gradientColor=none;" parent="1" vertex="1">
                    <mxGeometry x="-370" y="250" width="69" height="72" as="geometry"/>
                </mxCell>
                <mxCell id="15" value="" style="outlineConnect=0;dashed=0;verticalLabelPosition=bottom;verticalAlign=top;align=center;html=1;shape=mxgraph.aws3.ecr_registry;fillColor=#F58534;gradientColor=none;" parent="1" vertex="1">
                    <mxGeometry x="-450" y="350" width="57" height="60" as="geometry"/>
                </mxCell>
                <mxCell id="16" value="" style="outlineConnect=0;dashed=0;verticalLabelPosition=bottom;verticalAlign=top;align=center;html=1;shape=mxgraph.aws3.rds;fillColor=#2E73B8;gradientColor=none;" parent="1" vertex="1">
                    <mxGeometry x="-393" y="120" width="72" height="81" as="geometry"/>
                </mxCell>
                <mxCell id="20" value="" style="dashed=0;html=1;shape=mxgraph.aws3.permissions;fillColor=#D9A741;gradientColor=none;dashed=0;" parent="1" vertex="1">
                    <mxGeometry x="-493" y="460" width="30" height="35" as="geometry"/>
                </mxCell>
                <mxCell id="21" value="" style="outlineConnect=0;dashed=0;verticalLabelPosition=bottom;verticalAlign=top;align=center;html=1;shape=mxgraph.aws3.route_53;fillColor=#F58536;gradientColor=none;" parent="1" vertex="1">
                    <mxGeometry x="200" y="-241.5" width="70.5" height="85.5" as="geometry"/>
                </mxCell>
                <mxCell id="25" value="Security group" style="fillColor=none;strokeColor=#DD3522;verticalAlign=top;fontStyle=0;fontColor=#DD3522;" parent="1" vertex="1">
                    <mxGeometry x="-422" y="520" width="130" height="130" as="geometry"/>
                </mxCell>
                <mxCell id="45" value="" style="outlineConnect=0;dashed=0;verticalLabelPosition=bottom;verticalAlign=top;align=center;html=1;shape=mxgraph.aws3.application_load_balancer;fillColor=#F58536;gradientColor=none;fontColor=#FFFFFF;" parent="1" vertex="1">
                    <mxGeometry x="-610" y="442" width="69" height="72" as="geometry"/>
                </mxCell>
                <mxCell id="48" value="" style="group" vertex="1" connectable="0" parent="1">
                    <mxGeometry x="1120" y="-80" width="330" height="340" as="geometry"/>
                </mxCell>
                <mxCell id="7" value="Amazon RDS" style="sketch=0;outlineConnect=0;fontColor=#232F3E;gradientColor=none;strokeColor=#ffffff;fillColor=#232F3E;dashed=0;verticalLabelPosition=middle;verticalAlign=bottom;align=center;html=1;whiteSpace=wrap;fontSize=10;fontStyle=1;spacing=3;shape=mxgraph.aws4.productIcon;prIcon=mxgraph.aws4.rds;" parent="48" vertex="1">
                    <mxGeometry y="240" width="80" height="100" as="geometry"/>
                </mxCell>
                <mxCell id="9" value="" style="shape=image;verticalLabelPosition=bottom;labelBackgroundColor=default;verticalAlign=top;aspect=fixed;imageAspect=0;image=data:image/png,iVBORw0KGgoAAAANSUhEUgAABLEAAAE1CAYAAAAYpnI9AAAACXBIWXMAAAsSAAALEgHS3X78AAAgAElEQVR4nO3dT3LbRrv24TupzOXD+QfxXYGUFZhZgZUViK4Pc8srMLyCyHNWmVpBpBUEWkGkFbwk5wdlrsBngIZNSSTFP+h+uoHfVaVyEttAR2o0gRtPd//y/ft3AZCyvCokfbJux74Wk8Ev1m0AAAAAAMC3X60bAAAAAAAAALyGEAsAAAAAAADRI8QCAAAAAABA9AixAAAAAAAAED1CLAAAAAAAAESPEAsAAAAAAADRI8QCAAAAAABA9AixAAAAAAAAED1CLAAAAAAAAESPEAsAAAAAAADRI8QCAAAAAABA9AixAAAAAAAAED1CLAAAAAAAAESPEAsAAAAAAADRI8QCAAAAAABA9AixAAAAAAAAED1CLAAAAAAAAESPEAsAAAAAAADRI8QCAAAAAABA9AixAAAAAAAAED1CLAAAAAAAAESPEAsAAAAAAADRI8QCAAAAAABA9AixAAAAAAAAED1CLAAAAAAAAESPEAsAAAAAAADRI8QCAAAAAABA9AixAAAAAAAAED1CLAAAAAAAAESPEAsAAAAAAADRI8QCAAAAAABA9AixAAAAAAAAED1CLAAAAAAAAESPEAsAAAAAAADRI8QCAAAAAABA9AixAAAAAAAAED1CLAAAAAAAAESPEAsAAAAAAADRI8QCAAAAAABA9AixAAAAAAAAEL3frBsARGQm6d66EQAAAAAA4KVfvn//bt0GAAAAAAAAYCumEwIAAAAAACB6hFgAAAAAAACIHiEWAAAAAAAAokeIBQAAAAAAgOgRYgEAAAAAACB6hFgAAAAAAACIHiEWAAAAAAAAovebdQO6LsurQtIn63bsazEZ/LLt97O8+h6qLS36vJgMik2/2dWfFQAAAAAAXUAlFgAAAAAAAKJHiAUAAAAAAIDoEWIBAAAAAAAgeoRYAAAAAAAAiB4hFgAAAAAAAKJHiAUAAAAAAIDoEWIBAAAAAAAgeoRYAAAAAAAAiB4hFgAAAAAAAKJHiAUALcvy6k2WV2+s2wEAAAAAXUKIBQDtm0p6yPJqZNwOAAAAAOgMQiwAaFGWVxeS3kk6lfRPllfXVGUBAAAAwPEIsQCgJS6smj77zx8klVlenYdvEQAAAAB0ByEWALRnKulkzX8/k/RvlldF0NYAAAAAQIcQYgFAC1amEW7zKcurB6qyAAAAAGB/hFgAcKQN0wg3oSoLAAAAAA5AiAUAx5tq/TTCbZqqrGH7zQEAAACA7iHEAoAj7DiNcJMzSUwvBAAAAIAdEGIBwIH2nEa4yYnq6YXjoxsEAAAAAB1GiAUAh5tq/2mEm3zN8uq6pWMBAAAAQOcQYgHAAbK8GunwaYSbfMjyatryMQEAAACgEwixAOAwU0/HvczyqnRTFQEAAAAADiEWAOwpy6tC0qnHU7yVRJAFAAAAACsIsQBgDy5YugpwqjMRZAEAAADAD4RYALCfQu0t5v4agiwAAAAAcAixAGBHWV4NJX0IfFqCLAAAAAAQIRYA7KMwOi9BFgAAAIDeI8QCgB24AOnCsAln8rcjIgAAAABEjxALAHZzpXBrYW3yLsurqXEbAAAAAMAEIRYA7GZs3QDnMsurELsjAgAAAEBUCLEA4BVZXl1IOrVux4q/XJsAAAAAoDcIsQDgdWPrBqwxzfLq3LoRAAAAABAKIRYAbJHl1VDSO+t2rHGiOshix0IAAAAAvUCIBQDbxTxt70xSYd0IAAAAAAiBEAsAthtbN+AVH1gfCwAAAEAfEGIBwAZuKuGZdTt2wLRCAAAAAJ1HiAUAm6VS4XQiaWrdCAAAAADwiRALADYbWTdgD++YVggAAACgywixAGCzGHcl3OaaaYUAAAAAuuo36wYAQIyyvBpZt+EAp5KuxI6F6Dm3nt3w2X+eLSaDWfDGAOi9dWPSYjIoLdoCAKkjxAKA9UbWDTjQVZZXUx7W0TfuIfFK9Vp2pxv+zFzSraRrrhEAPrkxqVA9Jp2s+X1JulM9HpUBmwYASfvl+/fv1m0AgOhkeVVKemvdjgPdLCaDsXUjgFCyvLqW9GGPv7KUVCwmg2tPTQLQU25af6H9xqR7SWPCdQB4HSEWAKyR5VXqg+N/uBlG17mHxVLS2YGHIPAF0Jojx6SlpNFiMnhotVEA0DEs7A4Az2R5dW7dhhYU1g0AfGohwJKkyyyvpq00CECvtTAmnUgqO3IPAgDeEGIBwEtduIG8dOtxAF1V6LgAq3GZ5VXRwnEA9Nutjh+TmiBreHxzAKCbCLEA4KUuhFiSNLZuAOCD2z10n/VmXvOJh0YAh8ry6krtraN5Imna0rEAoHMIsQDgpa6EWFfWDQA88dG3Cw/HBNBxKwu5t+mtC+sBAM8QYgHAS10JsU6yvBpbNwJok3tgfOfh0Jfu2ACwjwvV1VNt40UUAKxBiAUAL/m4GbVyYd0AoGWjRI8NoJt8fc6OPB0XAJL2m3UDViW6pf3nxWRQbPpNt1jsp2CtacliMvhl2+/zs4rHDj+rUu2t0xDK/WIyGFmcuIPl+++yvHqzmAy+WTcEaInPSslz1YszA8CufI1JJ1lenS8mgwdPxweAJFGJBQDdRzUWAAB+nHo8NlOcAeAZQiwAeGpk3QAPCLEAAAAAJI8QCwC67x0LVgMAAABIHSEWADzV1bBnZN0AAAAAADgGIRYAPOVz0WhLI+sGAAAAAMAxCLEAoB9G1g0AAAAAgGMQYgFAP5xZNwAAAAAAjkGIBQA9keXVyLoNAAAAAHAoQiwA6I+urvcFAAAAoAd+s24AACCYJzsvZnn1RnWw1fwqSUP3tfp3tk1FfJT0beXfv0l6cP88a74Wk8HsoBYDAAAAgEOIBQD9Mc7yaqg6pHrb0jHXBVzvnv+HLK+kOvCaqQ65HiQ9EG4BAAAA2BUhFgD0x6mkS8Pzn7mvHyFXlldLSWXztZgMHtb+TQAAAAC9R4gFALB0ojrUeidJWV7NVQdat4vJ4NawXQAAAAAiQ4gFAIhJUy126aq0ppKumXYIAAAAgN0JAQCxOpH0QdJ/s7wqs7waGbcHAAAAgCFCLABACt5K+seFWeev/mkAAAAAnUOIBQBPsbB43N5K+jfLq8K6IQAAAADCIsQCgKe+WTcAO/mU5dUDVVkAAABAfxBiAcBTM+sGYGdnqquyrqwbAgAAAMA/QiwAeGpm3QDs7S+3VtbQuiEAAAAA/CHEAoAVi8mgtG4DDvJW0gNVWQAAAEB3EWIBwEtz6wbgICeiKgsAAADoLEIsAHiJHQrT1lRlDa0bAgAAAKA9hFgA8BIhVvoeFpPBzLoRAAAAANpDiAUAL5XWDcDRCusGAAAAAGgXIRYAPMPi7sm752cIAAAAdA8hFgCs92jdAByssG4AAAAAgPYRYgHAerfWDcBBqMICAAAAOooQCwDWI8RK07V1AwAAAAD4QYgFAGssJoMHSXPrdmAv88VkQPgIAAAAdBQhFgBsVlo3AHsprBsAAAAAwB9CLADYjKlp6ZgvJoOpdSMAAAAA+EOIBQAbMKUwKYV1AwAAAAD4RYgFANtNrRuAV1GFBQAAAPQAIRYAbDe1bgBeVVg3AAAAAIB/hFgAsMViMphJurFuBzZ6pAoLAAAA6AdCLAB4XWHdAGx0Zd0AAAAAAGEQYgHAK1w11r11O/DC3WIyKK0bAQAAACAMQiwA2A0VP3FZip8JAAAA0CuEWACwg8Vk8CDWxorJtauQAwAAANAThFgAsLsr1RVAsPW4mAwK60YAAAAACOuX79+/W7cBAJKR5dW1pA/W7eixpaSRq4xDD2V5VUj65OnwnwlIAewjyyufD1N/sPYjADz1m3UDACAFWV6NVO9S+Na2Jb1XEGABAAAA/USIBQBbZHk1ljQW4VUM7haTwbV1IwAAAADYIMQCgGeyvBqqXv/qQtKpbWvgPKoOE3Eg16+Hks4lvZE0WvntXULaR0nf3D+XK79+ozquG7K8eqO6fwyffcn995NXDjGXNHP//KC6vzxImtFHuoFxBJZcVfyF6v7XjElLuXFG0u1iMri1al/M1ozvzTUsMb574cbLC9Xj5FDSmfutR9Xfy1LSdDEZfHvxl424a6zpK9LTMX6o9c9Fq+O69LN/NH2k9fGdNbEAQE8+aMb6+SGDOLAO1p7czepI9U1I8+trN6jHuld9s/IgqfS1eyRrYrUny6umf4xU9xHfoX2QPoJ2GI8jpaSHFPoIa2L55x6sp9ptjJqrDgYKj02KnvuejfQz8GN8D8SNndeSLnf440v3Z69Dh1kG9wBNEFrq5xh/0P8zIRaAXlq5OR+JiqvY/U6A9bqVIPZCcUx/fdTPt4yt/fwIsQ7nxr2mj4zkP5B4zVzSrerqidK4LVB/xpE2EWL548asQodtqPOo+gVYNFUuPjG+x8EFQ6X2//4/Shr7HOci7CNSHX42/WS2618ixALQC+6N1FA/3yhTbZWG94vJYGrdiFglVEG4VP0W/egHUUKs/Ty7aX1n3JxtWusj2E9C40jzUBxVHyHE8mPP6qtNOh1kMb7HxfXZWx0eDrU+8yChPiJJd6r7yKtTggmxACTPvfVo5vUP3dfq3H+qrNJEgLVBllfNA2fsNyTrPKounb895MGCEGs3LpgoVN+4xvC2dR9H9RHspgvjSAyfEYRY7Tqy+mqdx8VkcP76H0uHu+9t1m5lfI/AERVYzy0lnR87HTPxe4C5pKttYdaPEMvzTSEAAPsgwFrD7ZZZqBvB7EHrQBBibefeBBeKYyrYsczWCukyxpF2EWK1p6Xqq3WSH9slxvdYueD1Qe3124OD1471kXvVUyxnz3/j15V/7lRCDQBIFgHWM1lejbO8mkn6qm48eEr1m8FPkmZZXhXuJhAHyvJqlOVVKekfdePmVaKPtIpxBLHK8upNllfXqscvH33zylWmJInxPXpXarffnrmXDTvraB95K+nBVQ0/QYgFAIjFUvVb56l1Q2Lhbkpm6tZD53NPbmSN25KcLK+GHbxxfY4+coQejiNj47ZgD+4B9UHtTR9c50T11NmkML4n48rDMYtd/lBHw6tVJ5L+ft43VqcTsjgWAMDKXNJFlxf83Id7Y3ytNNeqOdZcdfl4ue43mU5Yc2+tr9TPpSC29hHUej6OeN/pq8F0wsO4MWyqcP1zvpgMhoHOdRQP64KlJKnx3U3f+8fT4Tfuzu36yLWkS0/njtGXxWRwJblKLPfNBwDAwp3qRSwJsCRleXWl+q10Hx88pbpS5J8sr6aJTy/wxt23PaifAZb0s4/c0kfWYxzRmaR/s7y6po/Ex1VfzRS2f56mMKVwZXzvY4AlpTe+j0If243vM/UrwJKkD83UwmY6YQodBADQPR8Xk8FF6ot6tmFl2sBfSm8nGR8uVU8vGFk3JBYB1o1JzTvVfeTFehl9xTjywgdJpds5DMbcGHYr6W/Z9M+hwTl3wvj+Qirju8+x5UlGw/guqa4++xFiMbADAEJ6VF0mfW3dkBisrAnSxfUMjnGi+o1s7/vJyvbdfX07v0mzXgZ9hHFkk6Yqy8e6NdiRUfVVEtz43ufqq01SGN+DFAMxvv9wmuXV+DfrVgAAemWpejvlwrohsXA3Z9y4bvfBVWTF/kbWC7dQ9bX6++Z1Fz/6yLrtuLuOcWQnf7k+Mqb6NxyDta+S4sb3r9btiFzfx/ep+jd1cJuLphJrZNkKAEAvNGtfFdYNiYGbOlCKB89dnal+C9mr6nF38/pVBFi7OFO9HffIuiGhMI7s7Z3q6YVD64b0AdVX262M73hd78Z3ScMsrx5EgPXc6NfX/wwAAEe5V73DUi/foK2zMjWs72Xh+zpRTx6GVsIJbl7300xBHVs3xDfGkYM1D8O9CsRDimDtq01m1g2QGN+P0Jvx3blUPV7hqRNCLACAL014NUplq+QQVh48uTHBWm76TSnCiWN8zfKqsG6EL4wjRztRXZHVyynKPkVcfbWM4UUa43srOj2+43Us7A4AaNNS0o2k/xBevbTy4BnTm2lEZGWBX8KJ431y03U6hXGkNc2i0SPrhnRBxNVXjVvrBjC+t6qT4zt204RYMQ40AIB0PEp6L2m4mAzGMbztjI0rfy/FZy42WAkn2F69PZddetBhHPHi1lXH4EARV1+tmlqenPHdi06N79gduxMCAA51r/rN5i2h1XbuTT+Lt2Ijqmu8uszySovJYGzdkGMwjnhzonr3z7FxO5KT0M6D95aV4YzvXnVifMdelqyJBQDY1aOkL5L+lPQ/brrgNQHWdu7m1XwaA+LldkorxQOOT0m/sWcc8e6SHQv3k0j1lVQvc2C29hnjexBJj+/YW0klFgBgnXvVN6czSSVrWx2Gt694jatkuBV9JITLLK++LSaDK+uG7INxJJgr94UtEqq+kuoAa7SYDL5ZnJzxPSgqsvrjlhALAPpjqXpB0ca3lX9/aP7d6mava3j7ites7FLFIr/hfMjy6mExGUytG7ILxpGgRtYNiJ2rvpoqjf54J2lsHGCVYnwP6TLLqzKV8R0HWUq6/Y3SWQDohPd8aMeDt6/Y0bV4wLHwNcurWewVpowjwXEtbpBg9dV4MRlYT79lfLfx1VXcWv/84UexmAy+/SppaN0SAMBRlmKtlNhMlebN61L1VNLm69G2Od2V5VUh6dK6HQfqQh+5TeBF7lRpjiPokITWvpLq6quhdYCR+PjeBVM3DRvdcr+YDK4ldicEgC6YMgUwHu7mNeab/WZaael+/bZLRYp74B9KOl/54gH7AO6h8JN1O15xr/37yBv97BtD1dOzYu0jJ6qDLLP1crZJYByR6j7yoDrgaPrJw6Y/vNI/ml9H7tdoKs2yvHoTY3+wQPXVYRIZ3+eqr9nm+p1J0rpx3oVBb/Tzum2+ToO09DDN+H7O9XywR/3sH6X7b7N1mzm5nXOlp31kqHY//x+1skEDIRYApO/augGouQ/yGG9e56qr9abbHjK3cTcuM/28mWmCrZHqG4sUHnTMue/Z1LgZ6zR95PbQaXbuYaHU0z7yRnX/iLGPnEkqFNli3gmMI+UhYcFK/5BWqofdQ3LTR0xDTx54a6x9dZiIx3ep/j411+9s17/07J5h9bptxvaR+zW2vnKq+mdhtjNlYg6+B3j255/3kZF+9pFDg897SRer1/gv/+///+9I0j8HHhAAYOtuMRnwAR0B92E9Uzw3cs000+tDg6t9uP//K0ljxf2GdpvPi8mg8HmCLK8eFFd10o3qcLP0fSLXR8aq+0lMfeTPGCo4pCjHESlsHzlX3T9MpmItJoNf9v07WV5999EW54+Qa7dRfXWcCMf3R9UvOm99h3wu+LxQfNMoPzZT0HzI8qqU9NbX8T0LfZ84VH0PMNZu9wBL1Wtgvfj5/fL9+3ffgy8AwJ+gN7jYLMurW8Vx479UfdN6bbgr01h1hUtMQcUuvIZYbopYLBU2N6pvDmcWJ3cPPFeK4+Z/qXodnRgqOWIbR6YWfWQlFL9SuEDvcTEZ7L2OTldCLKqvjhPh+B4kmHhuJagIee1us5R07mscSzTEiuE+sQk911Xx3evn7IG17SPEAoB0zReTwdC6EfjxYfy3dTskfZHbucW6IVKSYZa3EMtVmPzr49h7Mg2vnnPXzrXs+4h5VSvjyEsuzCokfQhwui+LyWDvqaWph1hUXx2P8f0loyB6k4MC6l0kFmKZh1dt+dW6AQCAgxXWDcCTBwBL95L+s5gMrmK6MVlMBlPVC3x+Nm5KDKbG539U/UA8juEBp7GYDG5dGP9Z9Q22lXcuRDLBOLLeYjL45oKl/6hun0+9W1+SnQdbMzU+f3PtRjO+u2u3UH0PcGfcnLMsr6Ja+9DAF9XXTxQvKI5FiAUAaVq6gAD2rmX3lnGper2HUSw3rs+t3Mj+rjpI6R1382y5TsrnxWRwHvPU45WHHd9BxTbXLkwyObdsx5E/Ix9HZovJYCTpo/yEnXex/r/7kOXVGzd19W/ZV8m8pumfFzE+fBuP76lcuxeS/lC9eLiVwk117Ju56hdY0bycaAMhFgCkqXdvjGPkdhGzWsT0UfU6D0n0hcVk8ODK+b9YtyWklelQFuaSfve9WH1bVoIKq8q9UxnsVGg8jtyrHkdirG55wY1352o3EF8qsh0qfaL6qj3G4/u9Iv7ePOdeolhWZZ2ofzMYblSP76V1Q9pGiAUA6WnmtMNeYXTeG0nRvnndxk0Nem/djoAK2VQ63Km+eQ2+sO+xXOj2p2ymF34yeFtfBD5f40vMFRybuLDzXPU42IZopmD5lFj11VwRV1+tKGTzvfzsrt2YvzcvuMrsC9UVlRYu3UuDPnjvppcm1Ud21YRYlmsQAAD2s3G3DoTj3mZbLOb5MfUbEzcV9nd1/P7DhSEhFqR+7iaBh7+tXHXBSDZ9pAh1IsNx5P0hi5jHZDEZjHV8IP4+lUqWYyRWffVFCVQHGo3vS9V9tgh83la5iso/1PHx3chSdQX21LohPjUhVnJv6QCgx6jCioPFz+F9KtMHX+MqhEbqdpBVGJzzvXu4T57rI0OFX0vtMmA1VujruXkIngY+rxcrgfi+a+0068RM225TTLK8GiZWfZXS2j1F4PMtVVdgTwOf1ws3xW2k8PcAbztcjdX0kc5nO0wnBIC03PRh2kPssrwaq14/J6TOPHg2uhxkuRAk9DpHXewj31T3kdBBVuH7BEbjyEUH+8iD2+HyvV7vJ3PVU5k6uU7MKrfg+IPSqr4qrRuyC4PxvZPhhOE9QBH4fCF0so9sQogFAGkprBsASeEXAe5cONHocJBVBD7flw73kSbICtlHQlRjWYwjZeBzBrOYDKZuraz/UT1V6aPqTQI+un//z2IyGC4mg+tEKn0O4qqvSkl/ieorX4qA5+p0OGF0D9C1aqxO95F1fnO/PshmPj4AYHdUYUXA3fiE3E67s+FEYzEZPLjv67/WbWmD27Eq5Fv6m9TXN3rNYjL45vpIqXAP5lfyFDQZjCMfuz6ONFwYUrqvXnHVV4XiD6+kuvqqSCy8shjfx10PJ4zuAcbqzhjRqwBL+lmJldTgAQA9VVg3AJLCVk/cdz2caLgbsK7sWhjyZ/YY+HxmXB8ZBzzl2D2w+hDyZ3bTlbX0sB7VV0GFvHY/xr7AfVsM7gFCrn3o0/u+BVgS0wkBIBVUYUXA3fCEWl9kKeki0Lmi4CpFbqzb0YJxoPMsVa9xlOKD4EHcA93nQKc7kYdrMPA40puQs69W1r5KYVZNUmtfbTAOdJ67voXP7h7gS8BTjgOey4ebvlTYPteEWKVlIwAAryqsGwBJYUOlXoUTK64UfhHv1rit7EMt1j3uY7jttpe/D3Q6HwFQqHFkqbqP9HEc6Tyqr8ILOL7PlX7AchBXfR7qHmAc6Dw+9PoFBZVYABA/qrDiEeqG4Uvib6oP5h5wxtbtOEKogOKuL9NMNhgrzELAZx6mnIQaR4o+TjPpA6qvzIQa3/sePo8DnefUBZMp6nUfaUIsPuAAIF6FdQMgZXl1rnBvYIsA54mWe/AOOaWgTSFuiJfq8RtYSXLBfqipNq39TAOOI499m4rUB1RfmQsxvt91JPA7mLsHCDVtPMUQ60vfX1D8Kv146wkAiA9VWPEIdaOT3G5NnhQKu+X20dwb3RAPlteMCz+mFc4DnGrc4rFCjSO9Djm7iOorW4HG996/oGgEHN9TC7GW6vmLTunpdMIQnQQAsJ/CugH4IcSNzn1fF+l8zgV5qd3Mh+gjc3dzj9o4wDnanFIYoo/cdCk86Duqr6IR4trlBcVT4wDnOMnyahTgPG3p4rW1t9UQa2bVCADAWl+4mYmDe4A9C3CqIsA5kuECvZReso0CnKMIcI5kuLAmxCLvo2MPwDiCA4xF9VUsRp6Pv1S4KdJJCDi+p1KNNedFZ201xOr1vEoAiAzlwnEZBTjHfYdv/o9RWDdgF4HWOuIGdr0iwDnaeMgZtXCM1zAFvVsuRfWVuUDj+3VXv39HChHsjQKcow2FdQNisRpicdEAQDy4mYnLKMA5pgHOkRwX2qSwNtYowDl4S7+GC399V+yNIjnGa4oA5wAaXa++aowCnGMa4BzJcbvw+h7fz7K8euP5HMda8hLrp9UQq7RqBADgibl4WI3NuefjU2GzXQrXg+8+shQPOdsUno9/4qoxjuG7j9xRhYVAOl999QzXrq0Q9wC+f8bHSuE+KBgqsQAgPuxOFxH3ds73Oja3no+fuql1A3Yw8nz8W8aFrUJcQwc/5AQaR6aejw9I/am+WjXyfPyp5+OnbhrgHKMA5zjG1LoBMfkRYi0mA9bEAgB7j1TkRCfE2znesG3h3lA/WrfjFb7XSyHo3MIFfDeeT3PMWOC9Us9NuwF86Vv11Sqf4zvX7itcf7vzfJqR5+Mf45FKvad+e/bvjwqzawoAYL0r6wbgBd8Pn9yc7Gaqeov56ATYnpuHnN3cql4I25eYQyz6B3z6op5WiQcY3x8CnKMLZp6PP/R8/GNMrRsQm+ch1kyEWABg5a5n5fmpGHo+fun5+F1xq0hDLBFQxKL0fPxjfs7DthqxAX0EviwlTfsYYDm+x/e3kv7xfA68znc19TEY35/59dm/M6UQAGwsRRVWrAgoIuCq1XzvUHQo37salZ6P3wnuIfve4ylOjtjByvc4Uno+PvrrRFKZ5dXQuiFGYt+1Di2JtCJuTrX+S89DrNKiEQAAXfMhFa2hz4NTfbeX0roBG4w8H7/0fPwuKT0f/9AwathmI5557HGVDMI4kXR7RIibspF1AxBMjP27tG5AjKjEAgB7c7Gwd8x8lpjHvlh5bPp4n7Ik4N6L7z5y6EOOz3Gkj9cFwjsTlcPothAb+eyL8X2NJyGWe4sTa6k+AHRVH3f6SUKAt87cnOwn1u+XzxvfWP+fY+X7+7X3z5pxBB3yNsurqXUjAosx2EB/ML6v8bwSS+IbBQAh3bHrWNR837zOPB+/UyKeenni8dilx2N3TqRVa77HEe7dEdJllleFdSMC8ubyOuIAABqMSURBVDm+Iy4j6waswfi+BiEWANhhMXfwmQu0z+fi7kOPxz7UzLoB6J1PWV6NrRsBdB0zNdZbF2KVoRsBAD3FYu7g5mR/PgOKvQXYsav0fHzsZ2jdgOf4HIGRr1ledXqqXY93ZEQcorrficmLECviUn0A6JLHxWRQWDcCr/K9lg0hVvqG1g3ACzPrBjwT445XQBvKjgdZQ+sGAHhpXSWWxG5JAODb2LoB2InXm/PFZMB0QqB9M+sGPONzHGFDJlg6kXQbYPMCIIS31g3AbjaFWGXIRgBAz3whvAAAtGBm3QD03qnqiiyCLABBEGIBQFhzSYV1IwAAAFpyJunauhFAx8ysGxArQiwACGvMTiMAAKBjLrO8mlo3AuiQmXUDYrU2xHIPWKyLBQDt+sLmGQCAFg2tG4CoLCV9dL9auMzyamx0buBY7AaYiE2VWJJ0G6wVANB9TCNMk9e1yzq+qxNgJbbryuc4curx2EjLnaThYjK4ljQybMfXLK8uDM8PHIqZEonYFmKVoRoBAD3ANMI0+f6ZsRBu+mbWDcALsV1XjP3waSnpz8VkcNHcZ7jNY94btmnakZc0M+sGIKjSugHYzcYQy015sSpFBYAu+cw0QmwQ28N2CqLaAnsxGcw8n2Lk+fhd1KvrKsuroXUbYOZedfXVixk0i8lgKulz8BbVTlTvWDg0On8rAozviAsz0RKxrRJLIo0EgGM9LiaDwroRiFYX3lQHE2AL9xgrZnoVyLTkzOOxS4/HPtTQugEIbinp42IyGG2r8nb3HzfBWvXUiaTbAOM20IYbQst0vBZikUYCwOGWksbWjcBRvK6JJR4+9+U79Dv05+2zcp2gcw+RVn74HkfoI/1yL+ncrX31qsVkMJbdgtVnSv95kplJ3bcU69YmhRALAPwp3LoUSFSAdcx4+NxPrN8vn9d5rP/PsfL9/dp7TAgwjgw9Hx9xWK2+mu35dy9kt/P82yyvpkbnbgP3cd03pgorLVtDLPehy1aTALC/u13fkiJ6c4/H9jntqYtircTy6STS6qJYjTwf/9A+4nMcIejsvr2qr55zz3Qj2VUVXWZ5VRidG9jm/bo15RC31yqxJKqxAGBfczGNsEtmPg+e5dXI5/E7ZuTz4EdUzJRttmONkefjd8nI8/EP7SOzNhvxTFSbHaBVx1RfPRFBkPUpy6ux0bmPUVo3AF7MJf3hNkBAYgixAKB94wDTRxCO7+qcC8/H7wRXjXTq8RTHVJ7P2mrEBiPPx+8Et4C01+rGI6aIex1HsrxiHOmmcZtV3a7/WvaVr1lepVY5OLNuAFo1V71r5zk7h6frt9f+wGIymGV59SimPADALj7zodg5M8/HH3k+flf4fvCaGf3dXRBQ7Mb39+mYNYVmbTVig5F48dxFrb8QW0wGZZZX7yV9bfvYOyqzvBoltGbozPPxl4pzKntXPKi+jr5JKhPqd9ji1RDLmUr6y2M7AKAL7t121ugW3zc8Z1leDVlU9FVjz8efHfoX3UNhi0154STLqwvW7XhVzEFniIrOK8/nQEcsJoOpq4j6YHD6E0m3WV6dp1C1HmJ8l3SRwvcCiMUu0wmlOsQCAGw2F9USnRSoso6Hzy3cVELfFeHlkX/f985fjC9buKmE7zyf5uAgKsA4csr6etjHYjK4knRjdPpT1RVZb4zOvy/GdyAiO4VYLhm+89wWAEgZb9G6jRtYW+MA5zi2UsZ7pU1CD3wWQlxD5ZF/3/c4MvZ8fHTMYjIYy3+/3ORMUiq7OPse33mRBexh10osiXn2ALDJe+bYd17p+finie7aFIrvG/zHFkLoso2GbHEiQoptCt8naKGa6ti//5pLgk4cYCS7IOsyy6up0bn3UXo+/pmrOAawg51DLLf9pNWWrAAQqxu25+2FMsA5xgHOkRwX7p14Pk0ZyTFew9v6Ndw0Op87V0rtPOSXLRzjNfQR7MUF+Beye867TOAlThngHEWAcwCdsE8llkQ1FgCsenSl+Oi+MsA53rKmzVpFgHOUxx7ALcw/P7ol21Gxt14R4Bxt3AOXLRzjNVdUY2FfbvwayS7I+prlVbTT6gON75dUYwG72TfESmXeMgD4tlR9w4cecG+qQ0y3KAKcIxkusPFdYSO1Fy6EeNlXBDhHMlzw+zbAqcpjDxBoHDkR1Vg4gFsWwbLvNDsmxorxHYjEXiGWG9ys5kwDQCyWkkYs5N470wDneBvz2+iQXDVJiJdndy1ey2VLx9nmNMsrQoqfpgHOsWxxd8FpS8fZ5hMVHTiEWx7hvdHpT1TvWDg0Ov9rygDnoBoL2MG+lVgS1VgAcMVC7r0Uakr9NdOBJNVvpH2vhSW1+HNdTAa3CjMdp6CPSFleFQpTqdfmtR9sHAl0HnSMC7JujE5/Iuk2xvEt4Pg+DXAOIGl7h1gs8A6g5z6zkHs/uTUxQlQjn6rnUwrclJIPgU7XdqgQIqQ4Uc8fdFy1QqiKtDaDzpnCjCPvqOrEodx6n1ZB1pniXYc5RLuoyAZecUgllsTbHQD9dLOYDArrRsDUNNB5PvR1kXf3Bn4a6HRtTiVsTFs+3iZ9DymmClOpN3cVGG2atny8jeeJsaIFybiS3TIyb7O8mhqde5tpqPNw7QKbHRpiTdtsBAAk4J6dCKGwn399vYm9Vv0mPoTW36q7tZN872LVmPZx/RQ3jTDEYu6Sn8qLqYdjrnOieCtaEDkX8I9kF2Rdums9GgHHd65dYIuDQixXCm1VYgoAoT1K6nPFAxx3Ux/q8+9UPXtp5HYjvAx0uqXHqcGhKtZ796Djqs8+BTxl6z/LwOPI29iCAKTD9dWx7JaS+eQ+F2ISanx/m+UVs5+ANQ6txJJ6vl4HgN5gJ0I8Nw14rnd9uYl162B9DXhKn9/XqcI99J1FOu2mda6PTAOe8s69uPVh6um468QYBCARbiObkWETvrprPxZThRvfP3DtAi8dHGK5D/X79poCANEhwMILbjpByM+/zt/EugeUMvBpvYVYbsyY+jr+GtFNu2mbm1pbKsw6WA2ffaRU2HHkOrIgAAlxQdZ7wyaUsfRfg/H9a8/XPwRe+O3Iv19I+qeFdgBAbJoA68G6IYhSobCff1+zvFIXd8ZcCbBChhM3AcLpa4XbYVGqq21mHe0jFgHWvQuafCoUbhw5UR0EdPZzza0Pd6G6auhc9ZTsxqOkB0m3Hhbq74XFZNCs0/iXwelPJN1meXUeyYvF0OP7tMvXrvTjXqC5flfN9PPanYVtFWJ1zHRCi7dIABDKuMs3CziO0eff165VZBkFWFKAJRGM1g/tYh9pAqxQi/03Ct8nMBhHmiArioqWtmR59cZNqf2v6oDlnZ4GWFLdfy4l/Z3l1YzKlsMsJoNr2a2LfKq6/5pveGIwvnfy2pXqtTCzvJpJ+lf1eodvn31dqr6u/5vlVS83M8FLR4VYTtHCMQAgJu95U4sdFAbn/Jrl1ZXBeVtnGGDdBHybWwQ6z6qvXVkjy/WRmcIHWCGqsBpFoPM0mofhToQ47v9jpv02hDhVHWZNfbSp69xOzXdGpz9TuIXVX1MEPt+JpH+78qLChc+l6rUwn4fOm1xKeujK9wCHOzrEohoLQMe87+J0HLTP8PPvr9QfvtwN6L8KH2AtJQULAV1Y9jnU+VZcZnl1G0PFwqFcOFEqfB+RAj6cGo0jJ6pDnKQDcTeO/K3D+8hl6mOpobHqKZoWovi5GY7vyb/MWnmJ9faAv36iDlYdYz9tVGJJVGMB6AYCLOzL6kbyMsurhxTL6t1uiyF3IVx1bbCeyrVstqd/p0Snn7hF6o8JJ45xF7AKq2E1jvyVYti5Mn2wjXHksi87wLbJjaMjSXOjJlxGEmJYje9JXrvSkxcUx1bYsuB9j7USYrkPe6uyUgBoAwEW9ubWTftidPoz1WX1SdzEZXl1nuXVg8IuhrtqvpgMitAndQ97ViHFmeogK4m39lleDd30kk9GTQhaqdcwHkfeqR5HRkbn38tKBcc+0wdf8yGV//+YuLHtQjYhjhRBiGE8vid17Uo/XmK1+YJimmKQh+O1VYkl2V3AAHAsAiwco5DdTXwzLaiMtSrLVU0UqqcPhl7baNXY6sRufLFaeuFE9Vv7qKuyXB950GHTS9pybbj7VSG7ceRU0j9u0eRoHwg9jyOFh2N2ngtgLYOkqfW4Zjy+N9fudeTXrq+XWCeKZ400BNRaiGW0Cw8AHIsAC0dxb2LHxs14q3rnniKmG1k33eNBdpU1jRuDKWLPjWUXUkh1H/k3tqAiy6sLtzPVJ9lMH2w8WlTqNSIZRy4lzSIcR1b7iC9vY30REDs3tr43On2zUcHQ6PyNsWzH9w9y165hG15Ymfrr8yVWEtXoaFeblVhSXY1leQEDwD4IsNAKt5tlDNPqPymCh9CVLbP32XXIl7kiqBZ3L/sK42ZIT4OKoVUjXDBRqp5aYt1HJPsAKZZx5ETxjCOjwH2Eh+EDuXspi0XOpbrPmq4PFcn4fiLpU5ZXM/cZbHntNhXYM7U79XedE+tppQiv1RDLvUWipA9ACgiw0Lax7Ba5XbX6EBpsqoVbz6iIKLxqjA0Wc19rMRlcK44dnZs+8l/XR0YhTuoebK5cH/lbtlMHV31006JiMFZ848h1qMDT9ZGxm3r0j8L2kVHAc3WOq2S0mpVzJunW6NySohrfT1V/Bge9dqUf0wanqsOrkNW10U6Vhx+/fP/+vfWDupuTWG5eAeA5Aix44cKAf6zbscaj6hv82zYf1t3N8YX7iiWQWPXZcorYOu7t+Ey2U+fWmavuI1MPfWSkuo+8a+u4LbpbTAZRvcWPfByZSipb7iNvVPePkfvV6tq4X0wGo33/UpZX7T9M/fRHBFOh9+Kq56w+D24Wk8HY6Nwxj+/NtXvb9rp/7kXZSHUAb7Xupdk47rm/R3cPEwtfIdZIcX74AgABFrxyO8H9Zd2OLZaqd/d6cF+zXR5IXRgxVH2z2vwa8wurgx5IQ0jgPmmpum+U7tdvuzxIr/SRc/c1Utx9ZC7pPJZKvVU9GEfO9XMcsdzwYRUhVgtckFPK7udq+uCfwPg+19Nr92HXMfDZfUAzxscQ2Jl93hNi2fASYklSlle3ivONG4D+IsBCEK6c3vc6ED404UVjqLhDiE2iDScaCYQUmzzvI28UTwixj6WkUUTTCF/o0DiSSh8hxGqJCzseZBdwmN7vJTq+z1VXka1zrjjCqk0IsXqm7YXdV43FIu8A4rCU9DsBFgK6Ul2+n5oT1TdjzVeKAdZS0kXMAZb0Y/2UFHd1ft5HUggn1rmKOcByujKOpNpHcCA3ZW0ku2fBr6HWg1wn0fH9VE+v29WvmAMsSYr68x7t8xZiuZvHwtfxAWBH0b9tR/e4z8CReJlj4SKh6z3VkCJ1H1N4qcE4Elxp3YAucePw2LAJpWWQJcb3kFL5zEdLfFZixbRLA4B+ehQBFozwAGrifUpTb1b6CA864dy4+9MkMI4Exb1CyxaTwa2k90anP5F069boCo7xPSiu3Z7xGmI5Y/HBCyA8AiyYc/1vJD4HQ0hyzTtCiqBMdy47FONIEHMXuKBlblz+YnT6U9W7rppgfA9iybXbP95DLDcnuvB9HgBYcaM6wGKOPMy5B1CTrZ97JMkAq8GDThBJBlgNxhHvCusGdNliMriS3RpRb91C6yYY370jwOqhEJVYzbTCuxDnAtB7XxaTwZgACzFxU9zei5tYH5IOsBpU23iVdIDVYBzx5rELY0js3DVoNbWusJpWKDG+e7RUvfYYeiZIiOWMxYULwK/37m0fEB33kDQSn4Vt6kSA1Vh50JkbN6VLOhFgNRhHWreU7eLjfTOSTZB1IuNKRsZ3L654ad1PwUIs18Eogwbgw1LS7116mEU38Ta2VZ0KsBquj5yLxYDb8LlLAVaDcaQ1S6W1m2ny3PPgWDZ9d2xwzicY31t108V7AOwmZCVWUwb9OeQ5AXTeo6RzbkKRipUHUG5iD9P50HplDRV2eD7c+8VkUFg3whfGkaMtVa+dWVo3pG8MQ9i3gc+3FuN7K9538QUFdhc0xJIkd0PBRQugDc0C7jPrhgD7WLmJ5/NwP73ZdXQxGXxbTAYj2S2GnKqlpD+6HHI2GEcOxssvY+57H3z5hyyvzkOfcx3G94MtJf3Zh/Ed2wUPsZwLUQIN4DgfWcAdKVu5ibXaejw1d+pJgLXKvW1+b92ORDThRGndkFAYR/bGy69IuCAi9Nhmtrj7Oozve2leYrEbIWxCrJUySgDYV/OW/dq6IUAb3GYEf4qXO9t8XEwGF30Nrd3D3u9iQeBtviwmg/O+hhOMIzvh5Vdk3NjW62okxvedNOFzr15iYTOrSqymjJTkGcA+7iUN+/SWHf3g3iyei2lBzz2qXv+q96H1yoLAvX7gW6OZXtL7nWkZRzZiHImYq0a6C3S6KANMxveNmvGd8BlPmIVYEuk7gL18XkwGIz7E0FWLyWDmpgV9FNUUUn3Ns27NCjd1bKy64oa39vWD75DpJT8xjrwQYhzxubj+zOOxYzJWgE0KYv48YXx/4U719PDYx/fS47F55tnANMSSfqTvvDECsEkzfbCwbggQgqsWOFe4N9OxuVddNVFYNyRWKxU3fV0Haa767Xxvp5i+hnEk6DhSejruvC/TY1eWmvEZ3iRxLTC+PxnfZ9aN2YHPYLT0eOykmYdYzoXYIhjAS0wfRC+5aooLSX+oP29k56q3zWbdix24t/ZXqtdS6cvLwKWkz0rj7bw5xpFg44ivvtirPu6CLJ+bfyXz/WR8T2p8Lz0dd8690Ga/fP/+3boNkqQsr4aqk8wT46YAiMNH1q8AallejSUVkk5tW+LFUtK1pGuqag6X5dVIdR95a9sSb75IKugjh2Mc8SfLq5na/77+J5FKlFZleXUu6d+WDztfTAbDlo8ZTA/G9xvV4/vMuiGHyPJqKumy5cN+piJ9s2hCLOnHoFWKIAvos0dJY94+AC917CF0LmkqwqtWdexhZ6mffWRm25TuYBxpn7vu/mnxkF/6vFmB66NfWzzkn4lV96zVwfH9VgmHV40sr96oXr+urQxjrroijXujDaIKsSSCLKDneNMO7CDLqwvVC+G+M27KIe4lTd3mLvDE3U9dqf23wyHMVVfVTPk88CfxceRRdXA1tW5II8ura0kfWjjUo6Teb2ST5dWVpL9aONSNW4O5Mzowvk/VsRdYbjz9u6XD/c7L/O2iC7EkL+k7gLjNVVdfldYNAVLipuI3D6Jnpo3Zbq76jSsVNYG5N8QXqh94Yu4jzVv5KZ8FYTGOtKeFaUUEWCta+H52LsBaxfgel5YyjPcxhfOxijLEkgiygB6h+gpowcqD6IXimGrwqLqyesobxTi4PjJS3UdiqL5pQomyC1N9uoBx5HhHVGQRYK1xxPezV2sKRTq+l5Ju+zS+H5FhLCVdEWDtJtoQSyLIAjqO6ivAE/d2dqR6m+7mV9/T9O9Vb9BSqg4leBCLnFtfZaS6f5zL/xpJj3raR2aez4cjMI4czl1bU+12TS1VV5cVHpuUtD3XgrpX/XK09Nik6DG+23HTPa+1+4uAe9UBVhJBfQyiDrEkgiygoz6rY3Phgdi5t7RD1TezzcNpY5cbrUdJzTVbrvz6jRuvbnChRfPA82blV2m3AGOuenFbqX6Y+eZ+ndFHuoFxZD9unZwL1d+v1eleS7mHfbH2285cONB8P9+s/NY3/az6mYVvWfw8ju/f+h4YbuKCxLHqcfJ5iNhUqnV6iqUv0YdYEkEW0CG8aQAAAAAAHCSJEEv6kWTeil0LgRQtVZd2X1s3BAAAAACQpmRCLOlHCWkpgiwgJTeqq68olQcAAAAAHCypEEv6EWTdyv/idACO86g6vCqtGwIAAAAASF9yIZb0Y2G6Uk8XSAQQB7aIBQAAAAC07lfrBhzCTUsaSbozbgqApz5LGhJgAQAAAADalmQl1qosr64lfbBuB9BzN6oXbp9ZNwQAAAAA0E3Jh1iSlOXVWNK1WPAdCO1edXhVWjcEAAAAANBtnQixpB8Lvk/FOllACIRXAAAAAICgOhNiST8WfJ9KemfcFKCr5qrDq6l1QwAAAAAA/dKpEKuR5dWVpEJMLwTaQngFAAAAADDVyRBLYnoh0BLCKwAAAABAFDobYjWyvCokfbJuB5CYe0nXi8ng1rohAAAAAABIPQixJCnLq5HqqqxT25YA0WPBdgAAAABAlHoRYkk/Fn2/ElVZwDo3qsOrmXVDAAAAAABYpzchVsOtlXUt6a11WwBjS9XXwvViMvhm3RgAAAAAALbpXYjVYAdD9Nij6uBqat0QAAAAAAB21dsQS/oxxbCQ9MG4KUAIN6rDqwfrhgAAAAAAsK9eh1iNLK+Gqhd+Z4ohumauesrglCmDAAAAAICUEWKtcLsYFiLMQtqWkm5F1RUAAAAAoEMIsdbI8upCdfXKqXVbgD3cSbplrSsAAAAAQBcRYm2R5dVYdWUWYRZi9ah6KuztYjKY2TYFAAAAAAB/CLF2wDRDRIbgCgAAAADQO4RYe3Bh1ljSpW1L0ENNcFWyzhUAAAAAoI8IsQ7gdjMcS7qSdGLaGHQZFVcAAAAAADiEWEdy62aNxVRDHG8pqVS9s+DtYjL4ZtscAAAAAADiQYjVEleddSXpQiwEj909ygVXi8mgtG0KAAAAAADxIsTyIMurC9Vh1oWYboin5qpDq1JUWwEAAAAAsDNCLM8ItHpvNbQqWdsKAAAAAIDDEGIF5AKtkZhy2GXN9MAHEVoBAAAAANAaQiwjbg2tJtR6Z9oYHGquOqxqAqvStjkAAAAAAHQXIVYksrwaqQ60RmKnwxg9CawkPbCeFQAAAAAA4RBiRcqFWueqQ61zMf0wlKV+hlUz1WFVadkgAAAAAABAiJWMLK/e6GmoNZR0Ztik1N1L+qafYdVMVFcBAAAAABAtQqzEuYqtofs6l/RGTEeU6gXWm5Dqya8EVQAAAAAApIcQq6NWKreaX6W6ikuqA68UpyfOVVdMST+rp6SfAdW3xWTwELxVAAAAAADAO0Ksnsvyqgm6pKeBV2PovtpWrvlvTcXUD6xHBQAAAAAAJOn/APTzekXw9ZjjAAAAAElFTkSuQmCC;" parent="48" vertex="1">
                    <mxGeometry x="60" y="160" width="141" height="36.28" as="geometry"/>
                </mxCell>
                <mxCell id="22" value="" style="outlineConnect=0;dashed=0;verticalLabelPosition=bottom;verticalAlign=top;align=center;html=1;shape=mxgraph.aws3.android;fillColor=#5A69A4;gradientColor=none;" parent="48" vertex="1">
                    <mxGeometry x="280" y="150" width="50" height="64" as="geometry"/>
                </mxCell>
                <mxCell id="37" value="Amazon ECR" style="sketch=0;outlineConnect=0;fontColor=#232F3E;gradientColor=none;strokeColor=#ffffff;fillColor=#232F3E;dashed=0;verticalLabelPosition=middle;verticalAlign=bottom;align=center;html=1;whiteSpace=wrap;fontSize=10;fontStyle=1;spacing=3;shape=mxgraph.aws4.productIcon;prIcon=mxgraph.aws4.ecr;" parent="48" vertex="1">
                    <mxGeometry width="80" height="100" as="geometry"/>
                </mxCell>
                <mxCell id="44" style="edgeStyle=none;html=1;entryX=1;entryY=0.75;entryDx=0;entryDy=0;fontColor=#FFFFFF;" parent="48" source="22" target="9" edge="1">
                    <mxGeometry relative="1" as="geometry"/>
                </mxCell>
                <mxCell id="38" style="edgeStyle=none;html=1;" parent="48" source="9" target="37" edge="1">
                    <mxGeometry relative="1" as="geometry"/>
                </mxCell>
                <mxCell id="49" value="" style="group" vertex="1" connectable="0" parent="1">
                    <mxGeometry x="-160" y="-80" width="1070" height="1020" as="geometry"/>
                </mxCell>
                <mxCell id="50" value="" style="group" vertex="1" connectable="0" parent="49">
                    <mxGeometry width="1070" height="1020" as="geometry"/>
                </mxCell>
                <mxCell id="6" value="VPC" style="sketch=0;outlineConnect=0;gradientColor=none;html=1;whiteSpace=wrap;fontSize=12;fontStyle=0;shape=mxgraph.aws4.group;grIcon=mxgraph.aws4.group_vpc;strokeColor=#879196;fillColor=none;verticalAlign=top;align=left;spacingLeft=30;fontColor=#879196;dashed=0;" parent="50" vertex="1">
                    <mxGeometry x="60" y="90" width="950" height="690" as="geometry"/>
                </mxCell>
                <mxCell id="2" value="&lt;font style=&quot;font-size: 15px;&quot;&gt;AWS Cloud&lt;/font&gt;" style="sketch=0;outlineConnect=0;gradientColor=none;html=1;whiteSpace=wrap;fontSize=12;fontStyle=0;shape=mxgraph.aws4.group;grIcon=mxgraph.aws4.group_aws_cloud;strokeColor=#AAB7B8;fillColor=none;verticalAlign=top;align=left;spacingLeft=30;fontColor=#AAB7B8;dashed=0;" parent="50" vertex="1">
                    <mxGeometry width="1070" height="1020" as="geometry"/>
                </mxCell>
                <mxCell id="3" value="&lt;font style=&quot;font-size: 16px;&quot;&gt;Region（ap-northeast1 東京）&lt;/font&gt;" style="sketch=0;outlineConnect=0;gradientColor=none;html=1;whiteSpace=wrap;fontSize=12;fontStyle=0;shape=mxgraph.aws4.group;grIcon=mxgraph.aws4.group_region;strokeColor=#879196;fillColor=none;verticalAlign=top;align=left;spacingLeft=30;fontColor=#879196;dashed=1;" parent="50" vertex="1">
                    <mxGeometry x="30" y="50" width="1010" height="800" as="geometry"/>
                </mxCell>
                <mxCell id="42" value="Availability ZoneA" style="fillColor=none;strokeColor=#147EBA;dashed=1;verticalAlign=top;fontStyle=0;fontColor=#FFFFFF;" parent="49" vertex="1">
                    <mxGeometry x="110" y="125" width="380" height="615" as="geometry"/>
                </mxCell>
                <mxCell id="26" value="Availability ZoneC" style="fillColor=none;strokeColor=#147EBA;dashed=1;verticalAlign=top;fontStyle=0;fontColor=#FFFFFF;" parent="49" vertex="1">
                    <mxGeometry x="536.5" y="125" width="423.5" height="615" as="geometry"/>
                </mxCell>
                <mxCell id="27" value="Public subnet１" style="points=[[0,0],[0.25,0],[0.5,0],[0.75,0],[1,0],[1,0.25],[1,0.5],[1,0.75],[1,1],[0.75,1],[0.5,1],[0.25,1],[0,1],[0,0.75],[0,0.5],[0,0.25]];outlineConnect=0;gradientColor=none;html=1;whiteSpace=wrap;fontSize=12;fontStyle=0;container=1;pointerEvents=0;collapsible=0;recursiveResize=0;shape=mxgraph.aws4.group;grIcon=mxgraph.aws4.group_security_group;grStroke=0;strokeColor=#248814;fillColor=#E9F3E6;verticalAlign=top;align=left;spacingLeft=30;fontColor=#248814;dashed=0;" parent="49" vertex="1">
                    <mxGeometry x="130" y="170" width="340" height="520" as="geometry"/>
                </mxCell>
                <mxCell id="39" value="" style="sketch=0;outlineConnect=0;fontColor=#232F3E;gradientColor=none;fillColor=#D45B07;strokeColor=none;dashed=0;verticalLabelPosition=bottom;verticalAlign=top;align=center;html=1;fontSize=12;fontStyle=0;aspect=fixed;pointerEvents=1;shape=mxgraph.aws4.ecs_service;" parent="27" vertex="1">
                    <mxGeometry x="100" y="212" width="39" height="48" as="geometry"/>
                </mxCell>
                <mxCell id="40" value="" style="sketch=0;outlineConnect=0;fontColor=#232F3E;gradientColor=none;fillColor=#D45B07;strokeColor=none;dashed=0;verticalLabelPosition=bottom;verticalAlign=top;align=center;html=1;fontSize=12;fontStyle=0;aspect=fixed;pointerEvents=1;shape=mxgraph.aws4.ecs_task;" parent="27" vertex="1">
                    <mxGeometry x="102" y="140" width="37" height="48" as="geometry"/>
                </mxCell>
                <mxCell id="23" value="" style="sketch=0;points=[[0,0,0],[0.25,0,0],[0.5,0,0],[0.75,0,0],[1,0,0],[0,1,0],[0.25,1,0],[0.5,1,0],[0.75,1,0],[1,1,0],[0,0.25,0],[0,0.5,0],[0,0.75,0],[1,0.25,0],[1,0.5,0],[1,0.75,0]];outlineConnect=0;fontColor=#232F3E;gradientColor=#F78E04;gradientDirection=north;fillColor=#D05C17;strokeColor=#ffffff;dashed=0;verticalLabelPosition=bottom;verticalAlign=top;align=center;html=1;fontSize=12;fontStyle=0;aspect=fixed;shape=mxgraph.aws4.resourceIcon;resIcon=mxgraph.aws4.fargate;" parent="27" vertex="1">
                    <mxGeometry x="43" y="50" width="50" height="50" as="geometry"/>
                </mxCell>
                <mxCell id="28" value="Public subnet２" style="points=[[0,0],[0.25,0],[0.5,0],[0.75,0],[1,0],[1,0.25],[1,0.5],[1,0.75],[1,1],[0.75,1],[0.5,1],[0.25,1],[0,1],[0,0.75],[0,0.5],[0,0.25]];outlineConnect=0;gradientColor=none;html=1;whiteSpace=wrap;fontSize=12;fontStyle=0;container=1;pointerEvents=0;collapsible=0;recursiveResize=0;shape=mxgraph.aws4.group;grIcon=mxgraph.aws4.group_security_group;grStroke=0;strokeColor=#248814;fillColor=#E9F3E6;verticalAlign=top;align=left;spacingLeft=30;fontColor=#248814;dashed=0;" parent="49" vertex="1">
                    <mxGeometry x="556.25" y="170" width="383.75" height="520" as="geometry"/>
                </mxCell>
                <mxCell id="51" value="" style="group" vertex="1" connectable="0" parent="1">
                    <mxGeometry x="316.75" y="-350" width="79.5" height="300" as="geometry"/>
                </mxCell>
                <mxCell id="30" value="" style="outlineConnect=0;dashed=0;verticalLabelPosition=bottom;verticalAlign=top;align=center;html=1;shape=mxgraph.aws3.users;fillColor=#D2D3D3;gradientColor=none;" parent="51" vertex="1">
                    <mxGeometry width="66" height="63" as="geometry"/>
                </mxCell>
                <mxCell id="31" value="" style="outlineConnect=0;dashed=0;verticalLabelPosition=bottom;verticalAlign=top;align=center;html=1;shape=mxgraph.aws3.internet_3;fillColor=#D2D3D3;gradientColor=none;" parent="51" vertex="1">
                    <mxGeometry y="140" width="79.5" height="54" as="geometry"/>
                </mxCell>
                <mxCell id="35" value="Internet&#10;gateway" style="sketch=0;outlineConnect=0;fontColor=#232F3E;gradientColor=none;strokeColor=#232F3E;fillColor=#ffffff;dashed=0;verticalLabelPosition=bottom;verticalAlign=top;align=center;html=1;fontSize=12;fontStyle=0;aspect=fixed;shape=mxgraph.aws4.resourceIcon;resIcon=mxgraph.aws4.internet_gateway;" parent="51" vertex="1">
                    <mxGeometry x="9.75" y="240" width="60" height="60" as="geometry"/>
                </mxCell>
                <mxCell id="34" style="edgeStyle=none;html=1;entryX=0.38;entryY=0.02;entryDx=0;entryDy=0;entryPerimeter=0;" parent="51" source="30" target="31" edge="1">
                    <mxGeometry relative="1" as="geometry"/>
                </mxCell>
                <mxCell id="36" style="edgeStyle=none;html=1;exitX=0.5;exitY=1;exitDx=0;exitDy=0;exitPerimeter=0;" parent="51" source="31" target="35" edge="1">
                    <mxGeometry relative="1" as="geometry"/>
                </mxCell>
            </root>
        </mxGraphModel>
    </diagram>
</mxfile>